# 3ds Max Wavefront OBJ Exporter v0.97b - (c)2007 guruware
# 创建的文件:26.12.2020 23:23:26

mtllib cao.mtl

#
# object polySurface744
#

v  -4.0000 -0.0000 -5.0000
v  -3.0000 -0.0000 -5.0000
v  -3.0000 1.0000 -5.0000
v  -4.0000 1.0000 -5.0000
v  -3.0000 1.0000 -6.0000
v  -4.0000 1.0000 -6.0000
v  -3.0000 0.0000 -6.0000
v  -4.0000 0.0000 -6.0000
# 8 vertices

vn 0.0000 -0.0000 1.0000
vn 0.0000 1.0000 0.0000
vn 0.0000 0.0000 -1.0000
vn 0.0000 -1.0000 -0.0000
vn 1.0000 0.0000 -0.0000
vn -1.0000 0.0000 -0.0000
# 6 vertex normals

vt 0.8824 0.6471 0.0000
vt 0.9412 0.6471 0.0000
vt 0.9412 0.7059 0.0000
vt 0.8824 0.7059 0.0000
vt 0.8824 0.5294 0.0000
vt 0.9412 0.5294 0.0000
vt 0.9412 0.5882 0.0000
vt 0.8824 0.5882 0.0000
vt 0.7059 0.8824 0.0000
vt 0.7647 0.8824 0.0000
vt 0.7647 0.9412 0.0000
vt 0.7059 0.9412 0.0000
# 12 texture coords

g polySurface744
usemtl block
s off
f 1/1/1 2/2/1 3/3/1 4/4/1 
f 4/5/2 3/6/2 5/7/2 6/8/2 
f 6/3/3 5/4/3 7/1/3 8/2/3 
f 8/9/4 7/10/4 2/11/4 1/12/4 
f 2/1/5 7/2/5 5/3/5 3/4/5 
f 8/1/6 1/2/6 4/3/6 6/4/6 
# 6 polygons

